<svg width="2193" height="852" viewBox="0 0 2193 852" fill="none" xmlns="http://www.w3.org/2000/svg">
<g clip-path="url(#clip0)">
<path fill-rule="evenodd" clip-rule="evenodd" d="M1917.86 -1309C1917.95 -1314.16 1918 -1319.32 1918 -1324.5C1918 -1778.2 1550.2 -2146 1096.5 -2146C642.798 -2146 275 -1778.2 275 -1324.5C275 -1319.32 275.048 -1314.16 275.143 -1309H275V852H1918V-1309H1917.86Z" fill="url(#paint0_linear)"/>
<path fill-rule="evenodd" clip-rule="evenodd" d="M1829.88 -1303C1829.96 -1307.48 1830 -1311.96 1830 -1316.46C1830 -1721.58 1501.6 -2050 1096.5 -2050C691.399 -2050 363 -1721.58 363 -1316.46C363 -1311.96 363.04 -1307.48 363.121 -1303H363V852H1830V-1303H1829.88Z" fill="#303030"/>
<path fill-rule="evenodd" clip-rule="evenodd" d="M1789.88 -1303C1789.96 -1307.3 1790 -1311.6 1790 -1315.92C1790 -1699.25 1479.51 -2010 1096.5 -2010C713.491 -2010 403 -1699.25 403 -1315.92C403 -1311.6 403.039 -1307.3 403.118 -1303H403V852H1790V-1303H1789.88Z" fill="#45946D"/>
<path fill-rule="evenodd" clip-rule="evenodd" d="M1745.69 -1308C1745.76 -1312.01 1745.8 -1316.03 1745.8 -1320.06C1745.8 -1679.01 1455.05 -1970 1096.4 -1970C737.746 -1970 447 -1679.01 447 -1320.06C447 -1316.03 447.037 -1312.01 447.109 -1308H447V852H1746V-1308H1745.69Z" fill="#303030"/>
<rect x="238" y="496" width="250" height="89" rx="44.5" fill="#A5A5A5"/>
<rect x="238" y="585" width="250" height="89" rx="44.5" fill="#A5A5A5"/>
<rect x="238" y="674" width="250" height="89" rx="44.5" fill="#A5A5A5"/>
<rect x="238" y="763" width="250" height="89" rx="44.5" fill="#A5A5A5"/>
<circle cx="363" cy="497" r="73" fill="#A5A5A5"/>
<rect x="238" y="496" width="250" height="89" rx="44.5" fill="url(#paint1_linear)"/>
<rect x="238" y="496" width="250" height="89" rx="44.5" fill="url(#paint2_linear)"/>
<rect x="238" y="585" width="250" height="89" rx="44.5" fill="url(#paint3_linear)"/>
<rect x="238" y="585" width="250" height="89" rx="44.5" fill="url(#paint4_linear)"/>
<rect x="238" y="674" width="250" height="89" rx="44.5" fill="url(#paint5_linear)"/>
<rect x="238" y="674" width="250" height="89" rx="44.5" fill="url(#paint6_linear)"/>
<rect x="238" y="763" width="250" height="89" rx="44.5" fill="url(#paint7_linear)"/>
<rect x="238" y="763" width="250" height="89" rx="44.5" fill="url(#paint8_linear)"/>
<path d="M436 496C436 486.414 434.112 476.921 430.443 468.064C426.775 459.207 421.397 451.16 414.619 444.381C407.84 437.603 399.793 432.225 390.936 428.557C382.079 424.888 372.586 423 363 423C353.413 423 343.921 424.888 335.064 428.557C326.207 432.225 318.16 437.603 311.381 444.381C304.603 451.16 299.225 459.207 295.557 468.064C291.888 476.921 290 486.414 290 496L363 496H436Z" fill="url(#paint9_linear)"/>
<path d="M436 496C436 486.414 434.112 476.921 430.443 468.064C426.775 459.207 421.397 451.16 414.619 444.381C407.84 437.603 399.793 432.225 390.936 428.557C382.079 424.888 372.586 423 363 423C353.413 423 343.921 424.888 335.064 428.557C326.207 432.225 318.16 437.603 311.381 444.381C304.603 451.16 299.225 459.207 295.557 468.064C291.888 476.921 290 486.414 290 496L363 496H436Z" fill="url(#paint10_linear)"/>
<rect x="1705" y="496" width="250" height="89" rx="44.5" fill="#A5A5A5"/>
<rect x="1705" y="585" width="250" height="89" rx="44.5" fill="#A5A5A5"/>
<rect x="1705" y="674" width="250" height="89" rx="44.5" fill="#A5A5A5"/>
<rect x="1705" y="763" width="250" height="89" rx="44.5" fill="#A5A5A5"/>
<circle cx="1830" cy="497" r="73" fill="#A5A5A5"/>
<rect x="1705" y="496" width="250" height="89" rx="44.5" fill="url(#paint11_linear)"/>
<rect x="1705" y="496" width="250" height="89" rx="44.5" fill="url(#paint12_linear)"/>
<rect x="1705" y="585" width="250" height="89" rx="44.5" fill="url(#paint13_linear)"/>
<rect x="1705" y="585" width="250" height="89" rx="44.5" fill="url(#paint14_linear)"/>
<rect x="1705" y="674" width="250" height="89" rx="44.5" fill="url(#paint15_linear)"/>
<rect x="1705" y="674" width="250" height="89" rx="44.5" fill="url(#paint16_linear)"/>
<rect x="1705" y="763" width="250" height="89" rx="44.5" fill="url(#paint17_linear)"/>
<rect x="1705" y="763" width="250" height="89" rx="44.5" fill="url(#paint18_linear)"/>
<path d="M1903 496C1903 486.414 1901.11 476.921 1897.44 468.064C1893.77 459.207 1888.4 451.16 1881.62 444.381C1874.84 437.603 1866.79 432.225 1857.94 428.557C1849.08 424.888 1839.59 423 1830 423C1820.41 423 1810.92 424.888 1802.06 428.557C1793.21 432.225 1785.16 437.603 1778.38 444.381C1771.6 451.16 1766.23 459.207 1762.56 468.064C1758.89 476.921 1757 486.414 1757 496L1830 496H1903Z" fill="url(#paint19_linear)"/>
<path d="M1903 496C1903 486.414 1901.11 476.921 1897.44 468.064C1893.77 459.207 1888.4 451.16 1881.62 444.381C1874.84 437.603 1866.79 432.225 1857.94 428.557C1849.08 424.888 1839.59 423 1830 423C1820.41 423 1810.92 424.888 1802.06 428.557C1793.21 432.225 1785.16 437.603 1778.38 444.381C1771.6 451.16 1766.23 459.207 1762.56 468.064C1758.89 476.921 1757 486.414 1757 496L1830 496H1903Z" fill="url(#paint20_linear)"/>
<g filter="url(#filter0_i)">
<rect x="612" width="80" height="585" rx="40" fill="#484848"/>
<rect x="739" y="66" width="80" height="519" rx="40" fill="#484848"/>
<rect x="866" y="143" width="80" height="442" rx="40" fill="#484848"/>
<rect x="993" y="208" width="80" height="377" rx="40" fill="#484848"/>
<rect x="1120" y="208" width="80" height="377" rx="40" fill="#484848"/>
<rect x="1247" y="143" width="80" height="442" rx="40" fill="#484848"/>
<rect x="1374" y="66" width="80" height="519" rx="40" fill="#484848"/>
<rect x="1501" width="80" height="585" rx="40" fill="#484848"/>
</g>
</g>
<defs>
<filter id="filter0_i" x="612" y="0" width="969" height="585" filterUnits="userSpaceOnUse" color-interpolation-filters="sRGB">
<feFlood flood-opacity="0" result="BackgroundImageFix"/>
<feBlend mode="normal" in="SourceGraphic" in2="BackgroundImageFix" result="shape"/>
<feColorMatrix in="SourceAlpha" type="matrix" values="0 0 0 0 0 0 0 0 0 0 0 0 0 0 0 0 0 0 127 0" result="hardAlpha"/>
<feOffset/>
<feGaussianBlur stdDeviation="32"/>
<feComposite in2="hardAlpha" operator="arithmetic" k2="-1" k3="1"/>
<feColorMatrix type="matrix" values="0 0 0 0 0 0 0 0 0 0 0 0 0 0 0 0 0 0 1 0"/>
<feBlend mode="normal" in2="shape" result="effect1_innerShadow"/>
</filter>
<linearGradient id="paint0_linear" x1="574" y1="-2347.5" x2="2084" y2="1446" gradientUnits="userSpaceOnUse">
<stop stop-color="#14F484"/>
<stop offset="0.913893" stop-color="#0D8C61"/>
</linearGradient>
<linearGradient id="paint1_linear" x1="363" y1="496" x2="363" y2="585" gradientUnits="userSpaceOnUse">
<stop stop-color="#33FF99"/>
<stop offset="0.475138" stop-color="#D8D9DB" stop-opacity="0"/>
<stop offset="1" stop-color="#D8D9DB" stop-opacity="0"/>
</linearGradient>
<linearGradient id="paint2_linear" x1="363" y1="496" x2="363" y2="585" gradientUnits="userSpaceOnUse">
<stop stop-color="white"/>
<stop offset="1" stop-color="white" stop-opacity="0"/>
</linearGradient>
<linearGradient id="paint3_linear" x1="363" y1="585" x2="363" y2="674" gradientUnits="userSpaceOnUse">
<stop stop-color="#33FF99"/>
<stop offset="0.475138" stop-color="#D8D9DB" stop-opacity="0"/>
<stop offset="1" stop-color="#D8D9DB" stop-opacity="0"/>
</linearGradient>
<linearGradient id="paint4_linear" x1="363" y1="585" x2="363" y2="674" gradientUnits="userSpaceOnUse">
<stop stop-color="white"/>
<stop offset="1" stop-color="white" stop-opacity="0"/>
</linearGradient>
<linearGradient id="paint5_linear" x1="363" y1="674" x2="363" y2="763" gradientUnits="userSpaceOnUse">
<stop stop-color="#33FF99"/>
<stop offset="0.475138" stop-color="#D8D9DB" stop-opacity="0"/>
<stop offset="1" stop-color="#D8D9DB" stop-opacity="0"/>
</linearGradient>
<linearGradient id="paint6_linear" x1="363" y1="674" x2="363" y2="763" gradientUnits="userSpaceOnUse">
<stop stop-color="white"/>
<stop offset="1" stop-color="white" stop-opacity="0"/>
</linearGradient>
<linearGradient id="paint7_linear" x1="363" y1="763" x2="363" y2="852" gradientUnits="userSpaceOnUse">
<stop stop-color="#33FF99"/>
<stop offset="0.475138" stop-color="#D8D9DB" stop-opacity="0"/>
<stop offset="1" stop-color="#D8D9DB" stop-opacity="0"/>
</linearGradient>
<linearGradient id="paint8_linear" x1="363" y1="763" x2="363" y2="852" gradientUnits="userSpaceOnUse">
<stop stop-color="white"/>
<stop offset="1" stop-color="white" stop-opacity="0"/>
</linearGradient>
<linearGradient id="paint9_linear" x1="363" y1="423" x2="363" y2="569" gradientUnits="userSpaceOnUse">
<stop stop-color="#33FF99"/>
<stop offset="0.475138" stop-color="#D8D9DB" stop-opacity="0"/>
<stop offset="1" stop-color="#D8D9DB" stop-opacity="0"/>
</linearGradient>
<linearGradient id="paint10_linear" x1="363" y1="423" x2="363" y2="569" gradientUnits="userSpaceOnUse">
<stop stop-color="white"/>
<stop offset="1" stop-color="white" stop-opacity="0"/>
</linearGradient>
<linearGradient id="paint11_linear" x1="1830" y1="496" x2="1830" y2="585" gradientUnits="userSpaceOnUse">
<stop stop-color="#33FF99"/>
<stop offset="0.475138" stop-color="#D8D9DB" stop-opacity="0"/>
<stop offset="1" stop-color="#D8D9DB" stop-opacity="0"/>
</linearGradient>
<linearGradient id="paint12_linear" x1="1830" y1="496" x2="1830" y2="585" gradientUnits="userSpaceOnUse">
<stop stop-color="white"/>
<stop offset="1" stop-color="white" stop-opacity="0"/>
</linearGradient>
<linearGradient id="paint13_linear" x1="1830" y1="585" x2="1830" y2="674" gradientUnits="userSpaceOnUse">
<stop stop-color="#33FF99"/>
<stop offset="0.475138" stop-color="#D8D9DB" stop-opacity="0"/>
<stop offset="1" stop-color="#D8D9DB" stop-opacity="0"/>
</linearGradient>
<linearGradient id="paint14_linear" x1="1830" y1="585" x2="1830" y2="674" gradientUnits="userSpaceOnUse">
<stop stop-color="white"/>
<stop offset="1" stop-color="white" stop-opacity="0"/>
</linearGradient>
<linearGradient id="paint15_linear" x1="1830" y1="674" x2="1830" y2="763" gradientUnits="userSpaceOnUse">
<stop stop-color="#33FF99"/>
<stop offset="0.475138" stop-color="#D8D9DB" stop-opacity="0"/>
<stop offset="1" stop-color="#D8D9DB" stop-opacity="0"/>
</linearGradient>
<linearGradient id="paint16_linear" x1="1830" y1="674" x2="1830" y2="763" gradientUnits="userSpaceOnUse">
<stop stop-color="white"/>
<stop offset="1" stop-color="white" stop-opacity="0"/>
</linearGradient>
<linearGradient id="paint17_linear" x1="1830" y1="763" x2="1830" y2="852" gradientUnits="userSpaceOnUse">
<stop stop-color="#33FF99"/>
<stop offset="0.475138" stop-color="#D8D9DB" stop-opacity="0"/>
<stop offset="1" stop-color="#D8D9DB" stop-opacity="0"/>
</linearGradient>
<linearGradient id="paint18_linear" x1="1830" y1="763" x2="1830" y2="852" gradientUnits="userSpaceOnUse">
<stop stop-color="white"/>
<stop offset="1" stop-color="white" stop-opacity="0"/>
</linearGradient>
<linearGradient id="paint19_linear" x1="1830" y1="423" x2="1830" y2="569" gradientUnits="userSpaceOnUse">
<stop stop-color="#33FF99"/>
<stop offset="0.475138" stop-color="#D8D9DB" stop-opacity="0"/>
<stop offset="1" stop-color="#D8D9DB" stop-opacity="0"/>
</linearGradient>
<linearGradient id="paint20_linear" x1="1830" y1="423" x2="1830" y2="569" gradientUnits="userSpaceOnUse">
<stop stop-color="white"/>
<stop offset="1" stop-color="white" stop-opacity="0"/>
</linearGradient>
<clipPath id="clip0">
<rect width="2193" height="852" fill="white"/>
</clipPath>
</defs>
</svg>
