<svg width="2193" height="769" viewBox="0 0 2193 769" fill="none" xmlns="http://www.w3.org/2000/svg">
<g clip-path="url(#clip0)">
<path fill-rule="evenodd" clip-rule="evenodd" d="M1917.86 104.35C1917.95 99.1744 1918 93.9869 1918 88.7881C1918 -366.73 1550.2 -736 1096.5 -736C642.798 -736 275 -366.73 275 88.7881C275 93.9869 275.048 99.1744 275.143 104.35H275V2274H1918V104.35H1917.86Z" fill="url(#paint0_linear)"/>
<path fill-rule="evenodd" clip-rule="evenodd" d="M1829.88 110.374C1829.96 105.88 1830 101.375 1830 96.8613C1830 -309.884 1501.6 -639.616 1096.5 -639.616C691.399 -639.616 363 -309.884 363 96.8613C363 101.375 363.04 105.88 363.121 110.374H363V2274H1830V110.374H1829.88Z" fill="#303030"/>
<path fill-rule="evenodd" clip-rule="evenodd" d="M1789.88 110.374C1789.96 106.061 1790 101.738 1790 97.4055C1790 -287.46 1479.51 -599.456 1096.5 -599.456C713.491 -599.456 403 -287.46 403 97.4055C403 101.738 403.039 106.061 403.118 110.374H403V2274H1790V110.374H1789.88Z" fill="#45946D"/>
<path fill-rule="evenodd" clip-rule="evenodd" d="M1745.69 105.354C1745.76 101.329 1745.8 97.294 1745.8 93.2508C1745.8 -267.141 1455.05 -559.295 1096.4 -559.295C737.746 -559.295 447 -267.141 447 93.2508C447 97.294 447.037 101.329 447.109 105.354H447V2274H1746V105.354H1745.69Z" fill="#303030"/>
<rect x="238" y="379.447" width="250" height="89.3562" rx="44.6781" fill="#A5A5A5"/>
<rect x="238" y="468.803" width="250" height="89.3562" rx="44.6781" fill="#A5A5A5"/>
<rect x="238" y="558.159" width="250" height="89.3562" rx="44.6781" fill="#A5A5A5"/>
<rect x="238" y="647.516" width="250" height="89.3562" rx="44.6781" fill="#A5A5A5"/>
<ellipse cx="363" cy="380.451" rx="73" ry="73.2922" fill="#A5A5A5"/>
<rect x="238" y="379.447" width="250" height="89.3562" rx="44.6781" fill="url(#paint1_linear)"/>
<rect x="238" y="379.447" width="250" height="89.3562" rx="44.6781" fill="url(#paint2_linear)"/>
<rect x="238" y="468.803" width="250" height="89.3562" rx="44.6781" fill="url(#paint3_linear)"/>
<rect x="238" y="468.803" width="250" height="89.3562" rx="44.6781" fill="url(#paint4_linear)"/>
<rect x="238" y="558.159" width="250" height="89.3562" rx="44.6781" fill="url(#paint5_linear)"/>
<rect x="238" y="558.159" width="250" height="89.3562" rx="44.6781" fill="url(#paint6_linear)"/>
<rect x="238" y="647.516" width="250" height="89.3562" rx="44.6781" fill="url(#paint7_linear)"/>
<rect x="238" y="647.516" width="250" height="89.3562" rx="44.6781" fill="url(#paint8_linear)"/>
<path d="M436 379.447C436 369.822 434.112 360.291 430.443 351.399C426.775 342.507 421.397 334.427 414.619 327.622C407.84 320.816 399.793 315.417 390.936 311.734C382.079 308.051 372.586 306.155 363 306.155C353.413 306.155 343.921 308.051 335.064 311.734C326.207 315.417 318.16 320.816 311.381 327.622C304.603 334.427 299.225 342.507 295.557 351.399C291.888 360.291 290 369.822 290 379.447L363 379.447H436Z" fill="url(#paint9_linear)"/>
<path d="M436 379.447C436 369.822 434.112 360.291 430.443 351.399C426.775 342.507 421.397 334.427 414.619 327.622C407.84 320.816 399.793 315.417 390.936 311.734C382.079 308.051 372.586 306.155 363 306.155C353.413 306.155 343.921 308.051 335.064 311.734C326.207 315.417 318.16 320.816 311.381 327.622C304.603 334.427 299.225 342.507 295.557 351.399C291.888 360.291 290 369.822 290 379.447L363 379.447H436Z" fill="url(#paint10_linear)"/>
<rect x="1705" y="379.447" width="250" height="89.3562" rx="44.6781" fill="#A5A5A5"/>
<rect x="1705" y="468.803" width="250" height="89.3562" rx="44.6781" fill="#A5A5A5"/>
<rect x="1705" y="558.159" width="250" height="89.3562" rx="44.6781" fill="#A5A5A5"/>
<rect x="1705" y="647.516" width="250" height="89.3562" rx="44.6781" fill="#A5A5A5"/>
<ellipse cx="1830" cy="380.451" rx="73" ry="73.2922" fill="#A5A5A5"/>
<rect x="1705" y="379.447" width="250" height="89.3562" rx="44.6781" fill="url(#paint11_linear)"/>
<rect x="1705" y="379.447" width="250" height="89.3562" rx="44.6781" fill="url(#paint12_linear)"/>
<rect x="1705" y="468.803" width="250" height="89.3562" rx="44.6781" fill="url(#paint13_linear)"/>
<rect x="1705" y="468.803" width="250" height="89.3562" rx="44.6781" fill="url(#paint14_linear)"/>
<rect x="1705" y="558.159" width="250" height="89.3562" rx="44.6781" fill="url(#paint15_linear)"/>
<rect x="1705" y="558.159" width="250" height="89.3562" rx="44.6781" fill="url(#paint16_linear)"/>
<rect x="1705" y="647.516" width="250" height="89.3562" rx="44.6781" fill="url(#paint17_linear)"/>
<rect x="1705" y="647.516" width="250" height="89.3562" rx="44.6781" fill="url(#paint18_linear)"/>
<path d="M1903 379.447C1903 369.822 1901.11 360.291 1897.44 351.399C1893.77 342.507 1888.4 334.427 1881.62 327.622C1874.84 320.816 1866.79 315.417 1857.94 311.734C1849.08 308.051 1839.59 306.155 1830 306.155C1820.41 306.155 1810.92 308.051 1802.06 311.734C1793.21 315.417 1785.16 320.816 1778.38 327.622C1771.6 334.427 1766.23 342.507 1762.56 351.399C1758.89 360.291 1757 369.822 1757 379.447L1830 379.447H1903Z" fill="url(#paint19_linear)"/>
<path d="M1903 379.447C1903 369.822 1901.11 360.291 1897.44 351.399C1893.77 342.507 1888.4 334.427 1881.62 327.622C1874.84 320.816 1866.79 315.417 1857.94 311.734C1849.08 308.051 1839.59 306.155 1830 306.155C1820.41 306.155 1810.92 308.051 1802.06 311.734C1793.21 315.417 1785.16 320.816 1778.38 327.622C1771.6 334.427 1766.23 342.507 1762.56 351.399C1758.89 360.291 1757 369.822 1757 379.447L1830 379.447H1903Z" fill="url(#paint20_linear)"/>
<ellipse cx="1096" cy="39.09" rx="480" ry="481.921" fill="black"/>
<rect x="616" y="33.0659" width="960" height="1204.8" fill="black"/>
</g>
<defs>
<linearGradient id="paint0_linear" x1="574" y1="-938.307" x2="2094.44" y2="2866.2" gradientUnits="userSpaceOnUse">
<stop stop-color="#14F484"/>
<stop offset="0.913893" stop-color="#0D8C61"/>
</linearGradient>
<linearGradient id="paint1_linear" x1="363" y1="379.447" x2="363" y2="468.803" gradientUnits="userSpaceOnUse">
<stop stop-color="#33FF99"/>
<stop offset="0.475138" stop-color="#D8D9DB" stop-opacity="0"/>
<stop offset="1" stop-color="#D8D9DB" stop-opacity="0"/>
</linearGradient>
<linearGradient id="paint2_linear" x1="363" y1="379.447" x2="363" y2="468.803" gradientUnits="userSpaceOnUse">
<stop stop-color="white"/>
<stop offset="1" stop-color="white" stop-opacity="0"/>
</linearGradient>
<linearGradient id="paint3_linear" x1="363" y1="468.803" x2="363" y2="558.159" gradientUnits="userSpaceOnUse">
<stop stop-color="#33FF99"/>
<stop offset="0.475138" stop-color="#D8D9DB" stop-opacity="0"/>
<stop offset="1" stop-color="#D8D9DB" stop-opacity="0"/>
</linearGradient>
<linearGradient id="paint4_linear" x1="363" y1="468.803" x2="363" y2="558.159" gradientUnits="userSpaceOnUse">
<stop stop-color="white"/>
<stop offset="1" stop-color="white" stop-opacity="0"/>
</linearGradient>
<linearGradient id="paint5_linear" x1="363" y1="558.159" x2="363" y2="647.516" gradientUnits="userSpaceOnUse">
<stop stop-color="#33FF99"/>
<stop offset="0.475138" stop-color="#D8D9DB" stop-opacity="0"/>
<stop offset="1" stop-color="#D8D9DB" stop-opacity="0"/>
</linearGradient>
<linearGradient id="paint6_linear" x1="363" y1="558.159" x2="363" y2="647.516" gradientUnits="userSpaceOnUse">
<stop stop-color="white"/>
<stop offset="1" stop-color="white" stop-opacity="0"/>
</linearGradient>
<linearGradient id="paint7_linear" x1="363" y1="647.516" x2="363" y2="736.872" gradientUnits="userSpaceOnUse">
<stop stop-color="#33FF99"/>
<stop offset="0.475138" stop-color="#D8D9DB" stop-opacity="0"/>
<stop offset="1" stop-color="#D8D9DB" stop-opacity="0"/>
</linearGradient>
<linearGradient id="paint8_linear" x1="363" y1="647.516" x2="363" y2="736.872" gradientUnits="userSpaceOnUse">
<stop stop-color="white"/>
<stop offset="1" stop-color="white" stop-opacity="0"/>
</linearGradient>
<linearGradient id="paint9_linear" x1="363" y1="306.155" x2="363" y2="452.739" gradientUnits="userSpaceOnUse">
<stop stop-color="#33FF99"/>
<stop offset="0.475138" stop-color="#D8D9DB" stop-opacity="0"/>
<stop offset="1" stop-color="#D8D9DB" stop-opacity="0"/>
</linearGradient>
<linearGradient id="paint10_linear" x1="363" y1="306.155" x2="363" y2="452.739" gradientUnits="userSpaceOnUse">
<stop stop-color="white"/>
<stop offset="1" stop-color="white" stop-opacity="0"/>
</linearGradient>
<linearGradient id="paint11_linear" x1="1830" y1="379.447" x2="1830" y2="468.803" gradientUnits="userSpaceOnUse">
<stop stop-color="#33FF99"/>
<stop offset="0.475138" stop-color="#D8D9DB" stop-opacity="0"/>
<stop offset="1" stop-color="#D8D9DB" stop-opacity="0"/>
</linearGradient>
<linearGradient id="paint12_linear" x1="1830" y1="379.447" x2="1830" y2="468.803" gradientUnits="userSpaceOnUse">
<stop stop-color="white"/>
<stop offset="1" stop-color="white" stop-opacity="0"/>
</linearGradient>
<linearGradient id="paint13_linear" x1="1830" y1="468.803" x2="1830" y2="558.159" gradientUnits="userSpaceOnUse">
<stop stop-color="#33FF99"/>
<stop offset="0.475138" stop-color="#D8D9DB" stop-opacity="0"/>
<stop offset="1" stop-color="#D8D9DB" stop-opacity="0"/>
</linearGradient>
<linearGradient id="paint14_linear" x1="1830" y1="468.803" x2="1830" y2="558.159" gradientUnits="userSpaceOnUse">
<stop stop-color="white"/>
<stop offset="1" stop-color="white" stop-opacity="0"/>
</linearGradient>
<linearGradient id="paint15_linear" x1="1830" y1="558.159" x2="1830" y2="647.516" gradientUnits="userSpaceOnUse">
<stop stop-color="#33FF99"/>
<stop offset="0.475138" stop-color="#D8D9DB" stop-opacity="0"/>
<stop offset="1" stop-color="#D8D9DB" stop-opacity="0"/>
</linearGradient>
<linearGradient id="paint16_linear" x1="1830" y1="558.159" x2="1830" y2="647.516" gradientUnits="userSpaceOnUse">
<stop stop-color="white"/>
<stop offset="1" stop-color="white" stop-opacity="0"/>
</linearGradient>
<linearGradient id="paint17_linear" x1="1830" y1="647.516" x2="1830" y2="736.872" gradientUnits="userSpaceOnUse">
<stop stop-color="#33FF99"/>
<stop offset="0.475138" stop-color="#D8D9DB" stop-opacity="0"/>
<stop offset="1" stop-color="#D8D9DB" stop-opacity="0"/>
</linearGradient>
<linearGradient id="paint18_linear" x1="1830" y1="647.516" x2="1830" y2="736.872" gradientUnits="userSpaceOnUse">
<stop stop-color="white"/>
<stop offset="1" stop-color="white" stop-opacity="0"/>
</linearGradient>
<linearGradient id="paint19_linear" x1="1830" y1="306.155" x2="1830" y2="452.739" gradientUnits="userSpaceOnUse">
<stop stop-color="#33FF99"/>
<stop offset="0.475138" stop-color="#D8D9DB" stop-opacity="0"/>
<stop offset="1" stop-color="#D8D9DB" stop-opacity="0"/>
</linearGradient>
<linearGradient id="paint20_linear" x1="1830" y1="306.155" x2="1830" y2="452.739" gradientUnits="userSpaceOnUse">
<stop stop-color="white"/>
<stop offset="1" stop-color="white" stop-opacity="0"/>
</linearGradient>
<clipPath id="clip0">
<rect width="2193" height="769" fill="white"/>
</clipPath>
</defs>
</svg>
