<svg width="2193" height="857" viewBox="0 0 2193 857" fill="none" xmlns="http://www.w3.org/2000/svg">
<g clip-path="url(#clip0)">
<path fill-rule="evenodd" clip-rule="evenodd" d="M1917.86 -452C1917.95 -457.155 1918 -462.322 1918 -467.5C1918 -921.202 1550.2 -1289 1096.5 -1289C642.798 -1289 275 -921.202 275 -467.5C275 -462.322 275.048 -457.155 275.143 -452H275V1709H1918V-452H1917.86Z" fill="url(#paint0_linear)"/>
<path fill-rule="evenodd" clip-rule="evenodd" d="M1829.88 -446C1829.96 -450.477 1830 -454.963 1830 -459.459C1830 -864.583 1501.6 -1193 1096.5 -1193C691.399 -1193 363 -864.583 363 -459.459C363 -454.963 363.04 -450.477 363.121 -446H363V1709H1830V-446H1829.88Z" fill="#303030"/>
<path fill-rule="evenodd" clip-rule="evenodd" d="M1789.88 -446C1789.96 -450.296 1790 -454.602 1790 -458.917C1790 -842.249 1479.51 -1153 1096.5 -1153C713.491 -1153 403 -842.249 403 -458.917C403 -454.602 403.039 -450.296 403.118 -446H403V1709H1790V-446H1789.88Z" fill="#45946D"/>
<path fill-rule="evenodd" clip-rule="evenodd" d="M1745.69 -451C1745.76 -455.01 1745.8 -459.028 1745.8 -463.055C1745.8 -822.01 1455.05 -1113 1096.4 -1113C737.746 -1113 447 -822.01 447 -463.055C447 -459.028 447.037 -455.01 447.109 -451H447V1709H1746V-451H1745.69Z" fill="#303030"/>
<rect x="238" width="250" height="89" rx="44.5" fill="#A5A5A5"/>
<rect x="238" y="89" width="250" height="89" rx="44.5" fill="#A5A5A5"/>
<rect x="238" width="250" height="89" rx="44.5" fill="url(#paint1_linear)"/>
<rect x="238" width="250" height="89" rx="44.5" fill="url(#paint2_linear)"/>
<rect x="238" y="89" width="250" height="89" rx="44.5" fill="url(#paint3_linear)"/>
<rect x="238" y="89" width="250" height="89" rx="44.5" fill="url(#paint4_linear)"/>
<rect x="1705" width="250" height="89" rx="44.5" fill="#A5A5A5"/>
<rect x="1705" y="89" width="250" height="89" rx="44.5" fill="#A5A5A5"/>
<rect x="1705" width="250" height="89" rx="44.5" fill="url(#paint5_linear)"/>
<rect x="1705" width="250" height="89" rx="44.5" fill="url(#paint6_linear)"/>
<rect x="1705" y="89" width="250" height="89" rx="44.5" fill="url(#paint7_linear)"/>
<rect x="1705" y="89" width="250" height="89" rx="44.5" fill="url(#paint8_linear)"/>
<rect x="616" y="-523" width="960" height="1200" fill="black"/>
</g>
<defs>
<linearGradient id="paint0_linear" x1="574" y1="-1490.5" x2="2084" y2="2303" gradientUnits="userSpaceOnUse">
<stop stop-color="#14F484"/>
<stop offset="0.913893" stop-color="#0D8C61"/>
</linearGradient>
<linearGradient id="paint1_linear" x1="363" y1="0" x2="363" y2="89" gradientUnits="userSpaceOnUse">
<stop stop-color="#33FF99"/>
<stop offset="0.475138" stop-color="#D8D9DB" stop-opacity="0"/>
<stop offset="1" stop-color="#D8D9DB" stop-opacity="0"/>
</linearGradient>
<linearGradient id="paint2_linear" x1="363" y1="0" x2="363" y2="89" gradientUnits="userSpaceOnUse">
<stop stop-color="white"/>
<stop offset="1" stop-color="white" stop-opacity="0"/>
</linearGradient>
<linearGradient id="paint3_linear" x1="363" y1="89" x2="363" y2="178" gradientUnits="userSpaceOnUse">
<stop stop-color="#33FF99"/>
<stop offset="0.475138" stop-color="#D8D9DB" stop-opacity="0"/>
<stop offset="1" stop-color="#D8D9DB" stop-opacity="0"/>
</linearGradient>
<linearGradient id="paint4_linear" x1="363" y1="89" x2="363" y2="178" gradientUnits="userSpaceOnUse">
<stop stop-color="white"/>
<stop offset="1" stop-color="white" stop-opacity="0"/>
</linearGradient>
<linearGradient id="paint5_linear" x1="1830" y1="0" x2="1830" y2="89" gradientUnits="userSpaceOnUse">
<stop stop-color="#33FF99"/>
<stop offset="0.475138" stop-color="#D8D9DB" stop-opacity="0"/>
<stop offset="1" stop-color="#D8D9DB" stop-opacity="0"/>
</linearGradient>
<linearGradient id="paint6_linear" x1="1830" y1="0" x2="1830" y2="89" gradientUnits="userSpaceOnUse">
<stop stop-color="white"/>
<stop offset="1" stop-color="white" stop-opacity="0"/>
</linearGradient>
<linearGradient id="paint7_linear" x1="1830" y1="89" x2="1830" y2="178" gradientUnits="userSpaceOnUse">
<stop stop-color="#33FF99"/>
<stop offset="0.475138" stop-color="#D8D9DB" stop-opacity="0"/>
<stop offset="1" stop-color="#D8D9DB" stop-opacity="0"/>
</linearGradient>
<linearGradient id="paint8_linear" x1="1830" y1="89" x2="1830" y2="178" gradientUnits="userSpaceOnUse">
<stop stop-color="white"/>
<stop offset="1" stop-color="white" stop-opacity="0"/>
</linearGradient>
<clipPath id="clip0">
<rect width="2193" height="857" fill="white"/>
</clipPath>
</defs>
</svg>
